<svg xmlns="http://www.w3.org/2000/svg" viewBox="0 0 100 100" width="100%" height="100%">
  <!-- TribeTalk Child Vector Asset (School Student) -->
  <circle cx="50" cy="50" r="48" fill="#F0FDF4" />
  
  <!-- Head & Hair -->
  <ellipse cx="50" cy="38" rx="16" ry="18" fill="#FBBF24" />
  <path d="M34 34 C34 22 66 22 66 34 C64 26 58 24 50 24 C42 24 36 26 34 34 Z" fill="#1E293B" />
  
  <!-- Eyes and Smile -->
  <circle cx="44" cy="37" r="2.2" fill="#0F172A" />
  <circle cx="56" cy="37" r="2.2" fill="#0F172A" />
  <circle cx="45" cy="36" r="0.8" fill="#FFFFFF" />
  <circle cx="57" cy="36" r="0.8" fill="#FFFFFF" />
  <path d="M46 44 Q50 49 54 44" stroke="#DC2626" stroke-width="2" stroke-linecap="round" fill="none" />
  <circle cx="41" cy="42" r="2.5" fill="#FDA4AF" opacity="0.8" />
  <circle cx="59" cy="42" r="2.5" fill="#FDA4AF" opacity="0.8" />

  <!-- Body / School Uniform -->
  <path d="M36 56 L64 56 L68 84 L32 84 Z" fill="#2563EB" rx="4" />
  <path d="M44 56 L50 66 L56 56 Z" fill="#FFFFFF" />
  <polygon points="49,60 51,60 52,72 50,75 48,72" fill="#DC2626" />

  <!-- Arms / Hands -->
  <path d="M34 58 L24 70" stroke="#FBBF24" stroke-width="5" stroke-linecap="round" />
  <path d="M66 58 L76 70" stroke="#FBBF24" stroke-width="5" stroke-linecap="round" />

  <!-- School Slate / Book in Hand -->
  <rect x="18" y="66" width="12" height="16" rx="2" fill="#334155" stroke="#94A3B8" stroke-width="1.2" />
  <line x1="21" y1="71" x2="27" y2="71" stroke="#F8FAFC" stroke-width="1" />
  <line x1="21" y1="75" x2="27" y2="75" stroke="#F8FAFC" stroke-width="1" />
</svg>
