<svg xmlns="http://www.w3.org/2000/svg" viewBox="0 0 100 100" width="100" height="100">
  <!-- Left Upper Wing -->
  <path d="M48 48 C40 24 16 20 12 36 C8 50 30 58 48 54 Z" fill="#38BDF8" stroke="#0284C7" stroke-width="2.5"/>
  <circle cx="28" cy="36" r="6" fill="#F43F5E"/>
  <!-- Left Lower Wing -->
  <path d="M48 54 C34 60 20 74 26 84 C32 92 46 80 48 60 Z" fill="#0EA5E9" stroke="#0284C7" stroke-width="2"/>
  <!-- Right Upper Wing -->
  <path d="M52 48 C60 24 84 20 88 36 C92 50 70 58 52 54 Z" fill="#38BDF8" stroke="#0284C7" stroke-width="2.5"/>
  <circle cx="72" cy="36" r="6" fill="#F43F5E"/>
  <!-- Right Lower Wing -->
  <path d="M52 54 C66 60 80 74 74 84 C68 92 54 80 52 60 Z" fill="#0EA5E9" stroke="#0284C7" stroke-width="2"/>
  <!-- Body -->
  <ellipse cx="50" cy="54" rx="4" ry="18" fill="#1E293B"/>
  <circle cx="50" cy="34" r="5" fill="#1E293B"/>
  <!-- Antennae -->
  <path d="M48 30 Q42 20 36 22" fill="none" stroke="#1E293B" stroke-width="2" stroke-linecap="round"/>
  <path d="M52 30 Q58 20 64 22" fill="none" stroke="#1E293B" stroke-width="2" stroke-linecap="round"/>
</svg>
